HIERARCHY
ROOT Hips
{
	OFFSET 0.000000 100.481300 0.000000
	CHANNELS 6 Xposition Yposition Zposition Xrotation Yrotation Zrotation
	JOINT Spine
	{
		OFFSET -0.279200 12.230698 -2.892100
		CHANNELS 3 Xrotation Yrotation Zrotation
		JOINT Spine1
		{
			OFFSET -0.325700 14.269203 -3.374200
			CHANNELS 3 Xrotation Yrotation Zrotation
			JOINT Spine2
			{
				OFFSET -0.372300 16.307602 -0.352600
				CHANNELS 3 Xrotation Yrotation Zrotation
				JOINT Neck
				{
					OFFSET -0.418800 17.814194 8.416900
					CHANNELS 3 Xrotation Yrotation Zrotation
					JOINT Head
					{
						OFFSET 0.000000 7.031097 3.806800
						CHANNELS 3 Xrotation Yrotation Zrotation
						JOINT HeadTop_End
						{
							OFFSET 0.000000 24.646606 12.978600
							CHANNELS 3 Xrotation Yrotation Zrotation
							End Site
							{
								OFFSET 0.000000 27.854965 0.000000
							}
						}
					}
				}
				JOINT LeftShoulder
				{
					OFFSET 16.952999 14.495407 -7.737500
					CHANNELS 3 Xrotation Yrotation Zrotation
					JOINT LeftArm
					{
						OFFSET 9.308998 -2.777710 0.208600
						CHANNELS 3 Xrotation Yrotation Zrotation
						JOINT LeftForeArm
						{
							OFFSET 29.972298 0.000000 0.000000
							CHANNELS 3 Xrotation Yrotation Zrotation
							JOINT LeftHand
							{
								OFFSET 26.026505 0.000000 0.000000
								CHANNELS 3 Xrotation Yrotation Zrotation
								JOINT LeftHandThumb1
								{
									OFFSET 12.240501 -7.147949 9.207150
									CHANNELS 3 Xrotation Yrotation Zrotation
									JOINT LeftHandThumb2
									{
										OFFSET 4.138618 -2.389435 2.389433
										CHANNELS 3 Xrotation Yrotation Zrotation
										JOINT LeftHandThumb3
										{
											OFFSET 2.726913 -1.574387 1.574386
											CHANNELS 3 Xrotation Yrotation Zrotation
											JOINT LeftHandThumb4
											{
												OFFSET 3.941010 -2.275345 2.275342
												CHANNELS 3 Xrotation Yrotation Zrotation
												End Site
												{
													OFFSET -0.005798 5.087799 0.009903
												}
											}
										}
									}
								}
								JOINT LeftHandIndex1
								{
									OFFSET 24.424698 -1.985611 5.953459
									CHANNELS 3 Xrotation Yrotation Zrotation
									JOINT LeftHandIndex2
									{
										OFFSET 6.426697 0.000000 0.000000
										CHANNELS 3 Xrotation Yrotation Zrotation
										JOINT LeftHandIndex3
										{
											OFFSET 5.337898 0.000000 0.000000
											CHANNELS 3 Xrotation Yrotation Zrotation
											JOINT LeftHandIndex4
											{
												OFFSET 4.409401 0.000000 0.000000
												CHANNELS 3 Xrotation Yrotation Zrotation
												End Site
												{
													OFFSET 0.000000 4.409363 0.014373
												}
											}
										}
									}
								}
								JOINT LeftHandMiddle1
								{
									OFFSET 23.810104 0.000000 0.000000
									CHANNELS 3 Xrotation Yrotation Zrotation
									JOINT LeftHandMiddle2
									{
										OFFSET 7.176498 0.000000 0.000000
										CHANNELS 3 Xrotation Yrotation Zrotation
										JOINT LeftHandMiddle3
										{
											OFFSET 6.774902 0.000000 0.000000
											CHANNELS 3 Xrotation Yrotation Zrotation
											JOINT LeftHandMiddle4
											{
												OFFSET 5.403328 0.000000 0.000000
												CHANNELS 3 Xrotation Yrotation Zrotation
												End Site
												{
													OFFSET -0.027702 5.403244 0.017414
												}
											}
										}
									}
								}
								JOINT LeftHandRing1
								{
									OFFSET 22.908401 -0.839279 -6.020567
									CHANNELS 3 Xrotation Yrotation Zrotation
									JOINT LeftHandRing2
									{
										OFFSET 6.337502 0.000000 0.000000
										CHANNELS 3 Xrotation Yrotation Zrotation
										JOINT LeftHandRing3
										{
											OFFSET 5.779297 0.000000 0.000000
											CHANNELS 3 Xrotation Yrotation Zrotation
											JOINT LeftHandRing4
											{
												OFFSET 4.965698 0.000000 0.000000
												CHANNELS 3 Xrotation Yrotation Zrotation
												End Site
												{
													OFFSET 0.000000 4.965668 0.016186
												}
											}
										}
									}
								}
								JOINT LeftHandPinky1
								{
									OFFSET 20.037003 -1.530319 -10.950146
									CHANNELS 3 Xrotation Yrotation Zrotation
									JOINT LeftHandPinky2
									{
										OFFSET 5.254700 0.000000 0.000000
										CHANNELS 3 Xrotation Yrotation Zrotation
										JOINT LeftHandPinky3
										{
											OFFSET 4.810204 0.000000 0.000000
											CHANNELS 3 Xrotation Yrotation Zrotation
											JOINT LeftHandPinky4
											{
												OFFSET 3.647202 0.000000 0.000000
												CHANNELS 3 Xrotation Yrotation Zrotation
												End Site
												{
													OFFSET 0.000000 3.647186 0.011889
												}
											}
										}
									}
								}
							}
						}
					}
				}
				JOINT RightShoulder
				{
					OFFSET -15.141001 14.495407 -7.737500
					CHANNELS 3 Xrotation Yrotation Zrotation
					JOINT RightArm
					{
						OFFSET -9.308998 -2.777710 0.208500
						CHANNELS 3 Xrotation Yrotation Zrotation
						JOINT RightForeArm
						{
							OFFSET -29.972300 0.000000 0.000000
							CHANNELS 3 Xrotation Yrotation Zrotation
							JOINT RightHand
							{
								OFFSET -26.026505 0.000000 0.000000
								CHANNELS 3 Xrotation Yrotation Zrotation
								JOINT RightHandThumb1
								{
									OFFSET -12.240601 -7.148026 9.207092
									CHANNELS 3 Xrotation Yrotation Zrotation
									JOINT RightHandThumb2
									{
										OFFSET -4.138618 -2.389435 2.389433
										CHANNELS 3 Xrotation Yrotation Zrotation
										JOINT RightHandThumb3
										{
											OFFSET -2.726974 -1.574417 1.574421
											CHANNELS 3 Xrotation Yrotation Zrotation
											JOINT RightHandThumb4
											{
												OFFSET -3.941010 -2.275345 2.275343
												CHANNELS 3 Xrotation Yrotation Zrotation
												End Site
												{
													OFFSET 0.005814 5.087799 0.009927
												}
											}
										}
									}
								}
								JOINT RightHandIndex1
								{
									OFFSET -24.424698 -1.985657 5.953444
									CHANNELS 3 Xrotation Yrotation Zrotation
									JOINT RightHandIndex2
									{
										OFFSET -6.426697 0.000000 0.000000
										CHANNELS 3 Xrotation Yrotation Zrotation
										JOINT RightHandIndex3
										{
											OFFSET -5.337898 0.000000 0.000000
											CHANNELS 3 Xrotation Yrotation Zrotation
											JOINT RightHandIndex4
											{
												OFFSET -4.409401 0.000000 0.000000
												CHANNELS 3 Xrotation Yrotation Zrotation
												End Site
												{
													OFFSET 0.000000 4.409363 0.014408
												}
											}
										}
									}
								}
								JOINT RightHandMiddle1
								{
									OFFSET -23.810097 0.000000 0.000000
									CHANNELS 3 Xrotation Yrotation Zrotation
									JOINT RightHandMiddle2
									{
										OFFSET -7.176498 0.000000 0.000000
										CHANNELS 3 Xrotation Yrotation Zrotation
										JOINT RightHandMiddle3
										{
											OFFSET -6.774902 0.000000 0.000000
											CHANNELS 3 Xrotation Yrotation Zrotation
											JOINT RightHandMiddle4
											{
												OFFSET -5.403328 0.000000 0.000000
												CHANNELS 3 Xrotation Yrotation Zrotation
												End Site
												{
													OFFSET 0.027702 5.403244 0.017457
												}
											}
										}
									}
								}
								JOINT RightHandRing1
								{
									OFFSET -22.908302 -0.839325 -6.020576
									CHANNELS 3 Xrotation Yrotation Zrotation
									JOINT RightHandRing2
									{
										OFFSET -6.337502 0.000000 0.000000
										CHANNELS 3 Xrotation Yrotation Zrotation
										JOINT RightHandRing3
										{
											OFFSET -5.779297 0.000000 0.000000
											CHANNELS 3 Xrotation Yrotation Zrotation
											JOINT RightHandRing4
											{
												OFFSET -4.965698 0.000000 0.000000
												CHANNELS 3 Xrotation Yrotation Zrotation
												End Site
												{
													OFFSET 0.000000 4.965668 0.016226
												}
											}
										}
									}
								}
								JOINT RightHandPinky1
								{
									OFFSET -20.037003 -1.530334 -10.950259
									CHANNELS 3 Xrotation Yrotation Zrotation
									JOINT RightHandPinky2
									{
										OFFSET -5.254700 0.000000 0.000000
										CHANNELS 3 Xrotation Yrotation Zrotation
										JOINT RightHandPinky3
										{
											OFFSET -4.810204 0.000000 0.000000
											CHANNELS 3 Xrotation Yrotation Zrotation
											JOINT RightHandPinky4
											{
												OFFSET -3.647202 0.000000 0.000000
												CHANNELS 3 Xrotation Yrotation Zrotation
												End Site
												{
													OFFSET 0.000000 3.647186 0.011917
												}
											}
										}
									}
								}
							}
						}
					}
				}
			}
		}
	}
	JOINT LeftUpLeg
	{
		OFFSET 15.427100 -6.655098 0.678600
		CHANNELS 3 Xrotation Yrotation Zrotation
		JOINT LeftLeg
		{
			OFFSET 4.081073 -39.591068 13.024000
			CHANNELS 3 Xrotation Yrotation Zrotation
			JOINT LeftFoot
			{
				OFFSET -4.081074 -37.707932 -15.979700
				CHANNELS 3 Xrotation Yrotation Zrotation
				JOINT LeftToeBase
				{
					OFFSET 5.346399 -15.068900 20.645000
					CHANNELS 3 Xrotation Yrotation Zrotation
					JOINT LeftToe_End
					{
						OFFSET 2.754700 0.931300 11.300900
						CHANNELS 3 Xrotation Yrotation Zrotation
						End Site
						{
							OFFSET 0.000000 11.669021 0.000000
						}
					}
				}
			}
		}
	}
	JOINT RightUpLeg
	{
		OFFSET -15.569500 -6.655098 0.678600
		CHANNELS 3 Xrotation Yrotation Zrotation
		JOINT RightLeg
		{
			OFFSET -4.081825 -39.591045 13.023800
			CHANNELS 3 Xrotation Yrotation Zrotation
			JOINT RightFoot
			{
				OFFSET 4.081824 -37.707954 -15.979600
				CHANNELS 3 Xrotation Yrotation Zrotation
				JOINT RightToeBase
				{
					OFFSET -5.346400 -15.068900 20.645000
					CHANNELS 3 Xrotation Yrotation Zrotation
					JOINT RightToe_End
					{
						OFFSET -2.754700 0.931300 11.300900
						CHANNELS 3 Xrotation Yrotation Zrotation
						End Site
						{
							OFFSET 0.000000 11.669021 0.000000
						}
					}
				}
			}
		}
	}
}
MOTION
Frames: 4
Frame Time: 0.033333
0.181493 93.873154 -0.656312 -7.227125 8.209741 -1.264029 3.642360 -0.542521 1.568422 7.288530 -0.680280 0.414584 7.291942 -0.642448 0.411814 5.583559 -0.096210 0.754361 -18.187505 -0.993666 1.665337 0.000000 -0.000000 -0.000000 0.125577 8.007772 -11.784226 -12.101473 -7.213315 -65.684051 0.000005 -24.795400 0.000003 33.335192 8.964604 -10.177302 -4.962213 17.710146 8.545666 5.718526 16.212286 1.888990 0.356941 5.683806 3.276119 0.000000 0.000002 0.000000 0.271129 1.916801 -16.100195 0.071431 0.991255 -8.243226 0.017877 0.496920 -4.121302 0.000002 -0.000000 -0.000001 0.270589 1.914948 -16.084216 0.071702 0.993170 -8.259190 0.017879 0.496923 -4.121296 -0.000001 -0.000000 0.000000 0.271129 1.916801 -16.100195 0.071430 0.991255 -8.243226 0.017872 0.496920 -4.121297 -0.000002 -0.000000 -0.000000 1.382965 5.816436 -15.664796 0.062287 -3.063664 -8.748648 0.017877 0.496924 -4.121290 0.000002 0.000000 -0.000000 3.700194 11.762575 10.080446 -8.653267 -6.669788 60.808314 -0.000004 21.627010 0.000004 12.119758 -5.865486 21.224294 -14.042860 -16.009082 -14.573027 3.806587 -12.298784 -0.790113 -1.668316 -1.692438 -2.360659 -0.000003 0.000003 -0.000001 0.141537 -1.398602 11.556862 0.198192 -1.651509 13.685195 0.049716 -0.831681 6.841161 -0.000002 0.000001 -0.000001 0.141538 -1.398602 11.556861 0.198192 -1.651511 13.685195 0.049712 -0.831676 6.841168 0.000002 -0.000001 -0.000003 0.141539 -1.398602 11.556853 0.198190 -1.651510 13.685199 0.049715 -0.831680 6.841162 0.000000 -0.000001 -0.000002 0.244608 -1.875895 11.500269 0.198190 -1.651509 13.685176 0.049712 -0.831675 6.841157 0.000003 -0.000000 0.000002 -4.823293 10.570791 16.745109 20.853251 -1.032607 0.151667 -9.063144 1.864585 -5.732102 -1.936340 0.000010 0.000003 0.000000 0.000002 -0.000000 4.125722 -7.748491 -6.259398 17.394248 0.768558 -0.432017 -13.922610 -1.633378 3.878046 -1.930153 -0.000000 0.000003 0.000000 0.000000 -0.000000 
0.198621 93.848969 -0.592832 -7.219486 8.225825 -1.242525 3.623823 -0.555588 1.573671 7.250833 -0.701986 0.407741 7.254377 -0.664246 0.404996 5.606340 -0.087541 0.739686 -18.080397 -0.976507 1.706754 -0.000000 -0.000000 0.000000 0.124555 7.997324 -11.748552 -12.060221 -7.249472 -65.685540 -0.000003 -24.813599 0.000010 32.938529 8.313802 -10.128133 -4.962215 17.710141 8.545648 5.718522 16.212291 1.888987 0.356941 5.683805 3.276115 0.000000 -0.000004 -0.000003 0.271119 1.916800 -16.100212 0.071433 0.991255 -8.243228 0.017878 0.496920 -4.121302 0.000000 -0.000000 -0.000001 0.270582 1.914947 -16.084221 0.071700 0.993170 -8.259189 0.017879 0.496923 -4.121296 0.000001 -0.000000 -0.000001 0.271119 1.916800 -16.100211 0.071433 0.991256 -8.243227 0.017877 0.496920 -4.121298 0.000000 -0.000000 -0.000001 1.382960 5.816438 -15.664819 0.062288 -3.063664 -8.748647 0.017881 0.496924 -4.121289 -0.000001 0.000000 -0.000002 3.660777 11.637029 10.027692 -8.464450 -6.861085 60.970906 0.000003 22.173772 -0.000008 12.422471 -6.261513 21.751818 -14.042856 -16.009075 -14.573028 3.806577 -12.298789 -0.790114 -1.668316 -1.692442 -2.360684 0.000003 0.000003 0.000001 0.141538 -1.398598 11.556854 0.198192 -1.651510 13.685193 0.049716 -0.831681 6.841164 0.000001 0.000000 -0.000002 0.141539 -1.398598 11.556853 0.198192 -1.651511 13.685193 0.049716 -0.831676 6.841176 0.000001 -0.000001 -0.000000 0.141542 -1.398602 11.556851 0.198191 -1.651510 13.685196 0.049717 -0.831680 6.841165 -0.000001 0.000001 0.000000 0.244525 -1.875603 11.500314 0.198189 -1.651511 13.685181 0.049713 -0.831675 6.841164 -0.000000 0.000001 0.000001 -4.811896 10.566619 16.707239 20.944611 -1.012918 0.132317 -9.165865 1.862982 -5.637761 -1.979688 -0.000003 0.000003 -0.000000 0.000002 0.000000 4.149366 -7.805522 -6.315787 17.453502 0.765064 -0.395651 -14.012527 -1.634368 3.840357 -1.951935 -0.000001 -0.000001 0.000000 0.000000 -0.000000 
0.212877 93.815575 -0.508037 -7.186324 8.260511 -1.207479 3.574464 -0.572135 1.567890 7.159533 -0.732138 0.392351 7.163245 -0.694846 0.389680 5.637899 -0.064483 0.645460 -17.736133 -0.950107 1.823397 -0.000000 0.000000 -0.000000 0.122428 7.976339 -11.676279 -11.890553 -7.501253 -65.566305 -0.000006 -24.888697 -0.000021 32.367812 7.432126 -10.324701 -4.962208 17.710143 8.545648 5.718523 16.212286 1.888983 0.356939 5.683806 3.276116 -0.000002 0.000001 0.000001 0.271121 1.916800 -16.100229 0.071435 0.991256 -8.243227 0.017876 0.496921 -4.121300 0.000003 -0.000001 -0.000001 0.270591 1.914949 -16.084201 0.071702 0.993171 -8.259191 0.017883 0.496924 -4.121294 -0.000001 -0.000000 -0.000000 0.271121 1.916800 -16.100228 0.071433 0.991256 -8.243226 0.017875 0.496921 -4.121295 0.000000 0.000000 0.000001 1.382961 5.816441 -15.664810 0.062286 -3.063664 -8.748648 0.017879 0.496926 -4.121289 0.000002 0.000000 -0.000000 3.579400 11.378293 9.908242 -7.943254 -7.280743 61.268252 -0.000006 23.629413 0.000014 12.996572 -7.291155 22.513741 -14.042854 -16.009075 -14.573027 3.806573 -12.298785 -0.790130 -1.668315 -1.692437 -2.360668 0.000000 0.000003 0.000001 0.141544 -1.398601 11.556870 0.198192 -1.651510 13.685195 0.049718 -0.831679 6.841163 0.000002 0.000000 -0.000000 0.141545 -1.398601 11.556870 0.198195 -1.651510 13.685194 0.049715 -0.831674 6.841171 -0.000002 0.000000 0.000001 0.141541 -1.398594 11.556879 0.198189 -1.651510 13.685201 0.049718 -0.831681 6.841162 -0.000002 -0.000001 -0.000001 0.244959 -1.877354 11.500106 0.198193 -1.651510 13.685180 0.049709 -0.831674 6.841167 0.000000 -0.000003 -0.000001 -4.817437 10.573045 16.677374 21.050264 -0.995544 0.090317 -9.287288 1.866398 -5.515020 -2.015895 0.000011 0.000002 0.000000 0.000003 0.000000 4.160272 -7.919941 -6.418964 17.541985 0.755295 -0.289283 -14.144251 -1.624025 3.738957 -2.000650 -0.000001 -0.000003 0.000000 -0.000000 -0.000000 
0.212522 93.723068 -0.342860 -7.129251 8.333053 -1.201039 3.461741 -0.592872 1.553462 6.926222 -0.771561 0.331287 6.930201 -0.735000 0.328761 5.631294 0.000443 0.356282 -16.973037 -0.741613 1.846494 0.000000 -0.000000 0.000000 0.119248 7.932938 -11.545398 -11.234043 -8.326948 -64.892145 -0.000002 -25.093844 -0.000005 32.047493 5.476990 -10.764884 -4.962207 17.710144 8.545634 5.718526 16.212291 1.888988 0.356941 5.683807 3.276123 0.000000 0.000003 0.000004 0.271123 1.916795 -16.100216 0.071431 0.991255 -8.243227 0.017876 0.496920 -4.121301 0.000001 0.000000 -0.000001 0.270587 1.914945 -16.084216 0.071701 0.993170 -8.259191 0.017883 0.496924 -4.121295 -0.000002 0.000000 0.000000 0.271123 1.916795 -16.100216 0.071429 0.991256 -8.243226 0.017874 0.496920 -4.121295 -0.000001 -0.000000 -0.000000 1.382954 5.816440 -15.664815 0.062290 -3.063664 -8.748647 0.017880 0.496925 -4.121288 0.000000 -0.000000 -0.000001 3.492132 11.094695 9.760657 -7.068062 -7.822424 61.716216 -0.000005 25.615624 0.000012 13.817331 -8.731648 23.526710 -14.042856 -16.009079 -14.573016 3.806571 -12.298784 -0.790111 -1.668324 -1.692447 -2.360699 -0.000002 0.000000 0.000001 0.141538 -1.398600 11.556862 0.198194 -1.651510 13.685192 0.049714 -0.831680 6.841166 0.000002 -0.000000 -0.000005 0.141539 -1.398600 11.556861 0.198194 -1.651511 13.685193 0.049716 -0.831676 6.841168 -0.000000 0.000000 0.000002 0.141538 -1.398601 11.556860 0.198190 -1.651510 13.685195 0.049717 -0.831679 6.841163 0.000000 0.000001 0.000001 0.243814 -1.872797 11.500649 0.198191 -1.651510 13.685180 0.049710 -0.831674 6.841165 0.000001 -0.000001 -0.000001 -4.897885 10.642686 16.765586 21.291113 -0.997503 -0.000411 -9.504777 1.868529 -5.420755 -2.062904 -0.000012 -0.000001 -0.000000 -0.000003 -0.000000 4.186810 -8.150844 -6.567974 17.738210 0.718772 -0.046281 -14.413787 -1.579864 3.526821 -2.080046 0.000001 0.000002 0.000000 -0.000000 -0.000000 
